<svg xmlns="http://www.w3.org/2000/svg" width="29" height="28" viewBox="0 0 29 28" fill="none" id='left_function'>
                            <g clip-path="url(#clip0_564_3276)">
                                <path d="M14.5 8.75C14.8447 8.75 15.1861 8.6821 15.5045 8.55018C15.823 8.41827 16.1124 8.22491 16.3562 7.98116C16.5999 7.7374 16.7933 7.44802 16.9252 7.12954C17.0571 6.81106 17.125 6.46972 17.125 6.125C17.125 5.78028 17.0571 5.43894 16.9252 5.12046C16.7933 4.80198 16.5999 4.5126 16.3562 4.26884C16.1124 4.02509 15.823 3.83174 15.5045 3.69982C15.1861 3.5679 14.8447 3.5 14.5 3.5C13.8038 3.5 13.1361 3.77656 12.6438 4.26884C12.1516 4.76113 11.875 5.42881 11.875 6.125C11.875 6.82119 12.1516 7.48887 12.6438 7.98116C13.1361 8.47344 13.8038 8.75 14.5 8.75ZM21.5 14C22.1962 14 22.8639 13.7234 23.3562 13.2312C23.8484 12.7389 24.125 12.0712 24.125 11.375C24.125 10.6788 23.8484 10.0111 23.3562 9.51884C22.8639 9.02656 22.1962 8.75 21.5 8.75C20.8038 8.75 20.1361 9.02656 19.6438 9.51884C19.1516 10.0111 18.875 10.6788 18.875 11.375C18.875 12.0712 19.1516 12.7389 19.6438 13.2312C20.1361 13.7234 20.8038 14 21.5 14ZM10.125 12.25C10.125 12.9462 9.84844 13.6139 9.35616 14.1062C8.86387 14.5984 8.19619 14.875 7.5 14.875C6.80381 14.875 6.13613 14.5984 5.64384 14.1062C5.15156 13.6139 4.875 12.9462 4.875 12.25C4.875 11.5538 5.15156 10.8861 5.64384 10.3938C6.13613 9.90156 6.80381 9.625 7.5 9.625C8.19619 9.625 8.86387 9.90156 9.35616 10.3938C9.84844 10.8861 10.125 11.5538 10.125 12.25ZM11 22.75C11.6962 22.75 12.3639 22.4734 12.8562 21.9812C13.3484 21.4889 13.625 20.8212 13.625 20.125C13.625 19.4288 13.3484 18.7611 12.8562 18.2688C12.3639 17.7766 11.6962 17.5 11 17.5C10.3038 17.5 9.63613 17.7766 9.14384 18.2688C8.65156 18.7611 8.375 19.4288 8.375 20.125C8.375 20.8212 8.65156 21.4889 9.14384 21.9812C9.63613 22.4734 10.3038 22.75 11 22.75Z" fill="#FCFCFC" />
                                <path d="M28.5 14C28.5 19.5125 25.2345 18.5238 22.2578 17.6225C20.485 17.0853 18.8138 16.5778 18 17.5C16.9448 18.6953 17.1688 20.6833 17.3858 22.61C17.6955 25.3663 17.993 28 14.5 28C11.7311 28 9.02431 27.1789 6.72202 25.6406C4.41973 24.1022 2.62532 21.9157 1.56569 19.3576C0.506066 16.7994 0.228819 13.9845 0.769012 11.2687C1.30921 8.55301 2.64258 6.05845 4.60051 4.10051C6.55845 2.14258 9.05301 0.809205 11.7687 0.269012C14.4845 -0.271181 17.2994 0.00606593 19.8576 1.06569C22.4157 2.12532 24.6022 3.91973 26.1406 6.22202C27.6789 8.52431 28.5 11.2311 28.5 14ZM14.5 26.25C15.5693 26.25 15.6445 25.9508 15.6463 25.942C15.7828 25.6865 15.8633 25.13 15.7688 23.9838C15.7443 23.6898 15.704 23.3363 15.662 22.9495C15.571 22.1375 15.466 21.1908 15.4555 20.391C15.438 19.1538 15.6008 17.5735 16.6875 16.3415C17.3333 15.6118 18.1663 15.33 18.9135 15.26C19.6205 15.1935 20.3345 15.3055 20.9435 15.442C21.5438 15.5768 22.172 15.7675 22.7373 15.939L22.7863 15.953C23.3918 16.1368 23.9378 16.3013 24.454 16.4185C25.5968 16.6775 26.036 16.5638 26.1883 16.4605C26.2548 16.415 26.75 16.0318 26.75 14C26.75 11.5772 26.0316 9.20877 24.6855 7.19427C23.3395 5.17977 21.4263 3.60966 19.1879 2.68248C16.9495 1.75531 14.4864 1.51272 12.1102 1.98539C9.73388 2.45806 7.55114 3.62475 5.83795 5.33795C4.12475 7.05114 2.95806 9.23388 2.48539 11.6102C2.01272 13.9864 2.25531 16.4495 3.18248 18.6879C4.10966 20.9263 5.67977 22.8395 7.69427 24.1855C9.70877 25.5316 12.0772 26.25 14.5 26.25Z" fill="#FCFCFC" />
                            </g>
                            <defs>
                                <clipPath id="clip0_564_3276">
                                    <rect width="28" height="28" fill="white" transform="translate(0.5)" />
                                </clipPath>
                            </defs>
                        </svg>
