<svg width="119" height="48" viewBox="0 0 119 48" fill="none" xmlns="http://www.w3.org/2000/svg">
<g clip-path="url(#clip0_564_3274)">
<path d="M0.5 24C0.5 10.7452 11.2452 0 24.5 0H118.5V48H24.5C11.2452 48 0.5 37.2548 0.5 24Z" fill="#6100FF"/>
<g clip-path="url(#clip1_564_3274)">
<path d="M64.5 18.75C64.8447 18.75 65.1861 18.6821 65.5045 18.5502C65.823 18.4183 66.1124 18.2249 66.3562 17.9812C66.5999 17.7374 66.7933 17.448 66.9252 17.1295C67.0571 16.8111 67.125 16.4697 67.125 16.125C67.125 15.7803 67.0571 15.4389 66.9252 15.1205C66.7933 14.802 66.5999 14.5126 66.3562 14.2688C66.1124 14.0251 65.823 13.8317 65.5045 13.6998C65.1861 13.5679 64.8447 13.5 64.5 13.5C63.8038 13.5 63.1361 13.7766 62.6438 14.2688C62.1516 14.7611 61.875 15.4288 61.875 16.125C61.875 16.8212 62.1516 17.4889 62.6438 17.9812C63.1361 18.4734 63.8038 18.75 64.5 18.75ZM71.5 24C72.1962 24 72.8639 23.7234 73.3562 23.2312C73.8484 22.7389 74.125 22.0712 74.125 21.375C74.125 20.6788 73.8484 20.0111 73.3562 19.5188C72.8639 19.0266 72.1962 18.75 71.5 18.75C70.8038 18.75 70.1361 19.0266 69.6438 19.5188C69.1516 20.0111 68.875 20.6788 68.875 21.375C68.875 22.0712 69.1516 22.7389 69.6438 23.2312C70.1361 23.7234 70.8038 24 71.5 24ZM60.125 22.25C60.125 22.9462 59.8484 23.6139 59.3562 24.1062C58.8639 24.5984 58.1962 24.875 57.5 24.875C56.8038 24.875 56.1361 24.5984 55.6438 24.1062C55.1516 23.6139 54.875 22.9462 54.875 22.25C54.875 21.5538 55.1516 20.8861 55.6438 20.3938C56.1361 19.9016 56.8038 19.625 57.5 19.625C58.1962 19.625 58.8639 19.9016 59.3562 20.3938C59.8484 20.8861 60.125 21.5538 60.125 22.25ZM61 32.75C61.6962 32.75 62.3639 32.4734 62.8562 31.9812C63.3484 31.4889 63.625 30.8212 63.625 30.125C63.625 29.4288 63.3484 28.7611 62.8562 28.2688C62.3639 27.7766 61.6962 27.5 61 27.5C60.3038 27.5 59.6361 27.7766 59.1438 28.2688C58.6516 28.7611 58.375 29.4288 58.375 30.125C58.375 30.8212 58.6516 31.4889 59.1438 31.9812C59.6361 32.4734 60.3038 32.75 61 32.75Z" fill="#FCFCFC"/>
<path d="M78.5 24C78.5 29.5125 75.2345 28.5238 72.2578 27.6225C70.485 27.0853 68.8138 26.5778 68 27.5C66.9448 28.6953 67.1688 30.6833 67.3858 32.61C67.6955 35.3663 67.993 38 64.5 38C61.7311 38 59.0243 37.1789 56.722 35.6406C54.4197 34.1022 52.6253 31.9157 51.5657 29.3576C50.5061 26.7994 50.2288 23.9845 50.769 21.2687C51.3092 18.553 52.6426 16.0584 54.6005 14.1005C56.5584 12.1426 59.053 10.8092 61.7687 10.269C64.4845 9.72882 67.2994 10.0061 69.8576 11.0657C72.4157 12.1253 74.6022 13.9197 76.1406 16.222C77.6789 18.5243 78.5 21.2311 78.5 24ZM64.5 36.25C65.5693 36.25 65.6445 35.9508 65.6463 35.942C65.7828 35.6865 65.8633 35.13 65.7688 33.9838C65.7443 33.6898 65.704 33.3363 65.662 32.9495C65.571 32.1375 65.466 31.1908 65.4555 30.391C65.438 29.1538 65.6008 27.5735 66.6875 26.3415C67.3333 25.6118 68.1663 25.33 68.9135 25.26C69.6205 25.1935 70.3345 25.3055 70.9435 25.442C71.5438 25.5768 72.172 25.7675 72.7373 25.939L72.7863 25.953C73.3918 26.1368 73.9378 26.3013 74.454 26.4185C75.5968 26.6775 76.036 26.5638 76.1883 26.4605C76.2548 26.415 76.75 26.0318 76.75 24C76.75 21.5772 76.0316 19.2088 74.6855 17.1943C73.3395 15.1798 71.4263 13.6097 69.1879 12.6825C66.9495 11.7553 64.4864 11.5127 62.1102 11.9854C59.7339 12.4581 57.5511 13.6248 55.8379 15.3379C54.1248 17.0511 52.9581 19.2339 52.4854 21.6102C52.0127 23.9864 52.2553 26.4495 53.1825 28.6879C54.1097 30.9263 55.6798 32.8395 57.6943 34.1855C59.7088 35.5316 62.0772 36.25 64.5 36.25Z" fill="#FCFCFC"/>
</g>
</g>
<defs>
<clipPath id="clip0_564_3274">
<rect width="118" height="48" fill="white" transform="translate(0.5)"/>
</clipPath>
<clipPath id="clip1_564_3274">
<rect width="28" height="28" fill="white" transform="translate(50.5 10)"/>
</clipPath>
</defs>
</svg>
