<svg xmlns="http://www.w3.org/2000/svg" width="29" height="28" viewBox="0 0 29 28" fill="none">
    <g clip-path="url(#clip0_564_3281)">
        <path d="M14.5 19.25C13.1076 19.25 11.7723 18.6969 10.7877 17.7123C9.80312 16.7277 9.25 15.3924 9.25 14C9.25 12.6076 9.80312 11.2723 10.7877 10.2877C11.7723 9.30312 13.1076 8.75 14.5 8.75C15.8924 8.75 17.2277 9.30312 18.2123 10.2877C19.1969 11.2723 19.75 12.6076 19.75 14C19.75 15.3924 19.1969 16.7277 18.2123 17.7123C17.2277 18.6969 15.8924 19.25 14.5 19.25ZM14.5 21C16.3565 21 18.137 20.2625 19.4497 18.9497C20.7625 17.637 21.5 15.8565 21.5 14C21.5 12.1435 20.7625 10.363 19.4497 9.05025C18.137 7.7375 16.3565 7 14.5 7C12.6435 7 10.863 7.7375 9.55025 9.05025C8.2375 10.363 7.5 12.1435 7.5 14C7.5 15.8565 8.2375 17.637 9.55025 18.9497C10.863 20.2625 12.6435 21 14.5 21ZM14.5 0C14.7321 0 14.9546 0.0921872 15.1187 0.256282C15.2828 0.420376 15.375 0.642936 15.375 0.875V4.375C15.375 4.60706 15.2828 4.82962 15.1187 4.99372C14.9546 5.15781 14.7321 5.25 14.5 5.25C14.2679 5.25 14.0454 5.15781 13.8813 4.99372C13.7172 4.82962 13.625 4.60706 13.625 4.375V0.875C13.625 0.642936 13.7172 0.420376 13.8813 0.256282C14.0454 0.0921872 14.2679 0 14.5 0ZM14.5 22.75C14.7321 22.75 14.9546 22.8422 15.1187 23.0063C15.2828 23.1704 15.375 23.3929 15.375 23.625V27.125C15.375 27.3571 15.2828 27.5796 15.1187 27.7437C14.9546 27.9078 14.7321 28 14.5 28C14.2679 28 14.0454 27.9078 13.8813 27.7437C13.7172 27.5796 13.625 27.3571 13.625 27.125V23.625C13.625 23.3929 13.7172 23.1704 13.8813 23.0063C14.0454 22.8422 14.2679 22.75 14.5 22.75ZM28.5 14C28.5 14.2321 28.4078 14.4546 28.2437 14.6187C28.0796 14.7828 27.8571 14.875 27.625 14.875H24.125C23.8929 14.875 23.6704 14.7828 23.5063 14.6187C23.3422 14.4546 23.25 14.2321 23.25 14C23.25 13.7679 23.3422 13.5454 23.5063 13.3813C23.6704 13.2172 23.8929 13.125 24.125 13.125H27.625C27.8571 13.125 28.0796 13.2172 28.2437 13.3813C28.4078 13.5454 28.5 13.7679 28.5 14ZM5.75 14C5.75 14.2321 5.65781 14.4546 5.49372 14.6187C5.32962 14.7828 5.10706 14.875 4.875 14.875H1.375C1.14294 14.875 0.920376 14.7828 0.756282 14.6187C0.592187 14.4546 0.5 14.2321 0.5 14C0.5 13.7679 0.592187 13.5454 0.756282 13.3813C0.920376 13.2172 1.14294 13.125 1.375 13.125H4.875C5.10706 13.125 5.32962 13.2172 5.49372 13.3813C5.65781 13.5454 5.75 13.7679 5.75 14ZM24.3997 4.10025C24.5638 4.26434 24.6559 4.48686 24.6559 4.71887C24.6559 4.95089 24.5638 5.17341 24.3997 5.3375L21.9253 7.81375C21.8439 7.89499 21.7473 7.95941 21.6411 8.00333C21.5348 8.04725 21.421 8.06982 21.306 8.06974C21.0738 8.06957 20.8512 7.97718 20.6871 7.81287C20.6059 7.73152 20.5415 7.63496 20.4975 7.52871C20.4536 7.42246 20.4311 7.3086 20.4311 7.19363C20.4313 6.96144 20.5237 6.73882 20.688 6.57475L23.1625 4.10025C23.3266 3.93621 23.5491 3.84406 23.7811 3.84406C24.0131 3.84406 24.2357 3.93621 24.3997 4.10025ZM8.312 20.188C8.47604 20.3521 8.56819 20.5746 8.56819 20.8066C8.56819 21.0386 8.47604 21.2612 8.312 21.4253L5.8375 23.8997C5.67247 24.0591 5.45145 24.1473 5.22202 24.1453C4.9926 24.1433 4.77314 24.0513 4.61091 23.8891C4.44868 23.7269 4.35665 23.5074 4.35466 23.278C4.35267 23.0486 4.44086 22.8275 4.60025 22.6625L7.07475 20.188C7.23884 20.024 7.46136 19.9318 7.69337 19.9318C7.92539 19.9318 8.14791 20.024 8.312 20.188ZM24.3997 23.8997C24.2357 24.0638 24.0131 24.1559 23.7811 24.1559C23.5491 24.1559 23.3266 24.0638 23.1625 23.8997L20.688 21.4253C20.5286 21.2602 20.4404 21.0392 20.4424 20.8098C20.4444 20.5804 20.5364 20.3609 20.6987 20.1987C20.8609 20.0364 21.0804 19.9444 21.3098 19.9424C21.5392 19.9404 21.7602 20.0286 21.9253 20.188L24.3997 22.6625C24.5638 22.8266 24.6559 23.0491 24.6559 23.2811C24.6559 23.5131 24.5638 23.7357 24.3997 23.8997ZM8.312 7.81375C8.14791 7.97779 7.92539 8.06994 7.69337 8.06994C7.46136 8.06994 7.23884 7.97779 7.07475 7.81375L4.60025 5.3375C4.51668 5.25678 4.45002 5.16023 4.40416 5.05348C4.3583 4.94673 4.33417 4.83191 4.33316 4.71573C4.33215 4.59954 4.35429 4.48432 4.39828 4.37679C4.44228 4.26926 4.50725 4.17156 4.5894 4.0894C4.67156 4.00725 4.76926 3.94228 4.87679 3.89828C4.98432 3.85429 5.09954 3.83215 5.21573 3.83316C5.33191 3.83417 5.44673 3.8583 5.55348 3.90416C5.66023 3.95002 5.75678 4.01668 5.8375 4.10025L8.312 6.57475C8.39349 6.65603 8.45814 6.75259 8.50225 6.85889C8.54636 6.9652 8.56906 7.07916 8.56906 7.19425C8.56906 7.30934 8.54636 7.42331 8.50225 7.52961C8.45814 7.63591 8.39349 7.73247 8.312 7.81375Z" fill="#6100FF" />
    </g>
    <defs>
        <clipPath id="clip0_564_3281">
            <rect width="28" height="28" fill="white" transform="translate(0.5)" />
        </clipPath>
    </defs>
</svg>