<svg width="119" height="48" viewBox="0 0 119 48" fill="none" xmlns="http://www.w3.org/2000/svg">
<g clip-path="url(#clip0_702_2760)">
<path d="M1.5 1H94.5C107.203 1 117.5 11.2975 117.5 24C117.5 36.7025 107.203 47 94.5 47H1.5V1Z" fill="#6100FF"/>
<path d="M1.5 1H94.5C107.203 1 117.5 11.2975 117.5 24C117.5 36.7025 107.203 47 94.5 47H1.5V1Z" stroke="#6100FF" stroke-width="2"/>
<g clip-path="url(#clip1_702_2760)">
<path d="M54.5 29.25C53.1076 29.25 51.7723 28.6969 50.7877 27.7123C49.8031 26.7277 49.25 25.3924 49.25 24C49.25 22.6076 49.8031 21.2723 50.7877 20.2877C51.7723 19.3031 53.1076 18.75 54.5 18.75C55.8924 18.75 57.2277 19.3031 58.2123 20.2877C59.1969 21.2723 59.75 22.6076 59.75 24C59.75 25.3924 59.1969 26.7277 58.2123 27.7123C57.2277 28.6969 55.8924 29.25 54.5 29.25ZM54.5 31C56.3565 31 58.137 30.2625 59.4497 28.9497C60.7625 27.637 61.5 25.8565 61.5 24C61.5 22.1435 60.7625 20.363 59.4497 19.0503C58.137 17.7375 56.3565 17 54.5 17C52.6435 17 50.863 17.7375 49.5503 19.0503C48.2375 20.363 47.5 22.1435 47.5 24C47.5 25.8565 48.2375 27.637 49.5503 28.9497C50.863 30.2625 52.6435 31 54.5 31ZM54.5 10C54.7321 10 54.9546 10.0922 55.1187 10.2563C55.2828 10.4204 55.375 10.6429 55.375 10.875V14.375C55.375 14.6071 55.2828 14.8296 55.1187 14.9937C54.9546 15.1578 54.7321 15.25 54.5 15.25C54.2679 15.25 54.0454 15.1578 53.8813 14.9937C53.7172 14.8296 53.625 14.6071 53.625 14.375V10.875C53.625 10.6429 53.7172 10.4204 53.8813 10.2563C54.0454 10.0922 54.2679 10 54.5 10ZM54.5 32.75C54.7321 32.75 54.9546 32.8422 55.1187 33.0063C55.2828 33.1704 55.375 33.3929 55.375 33.625V37.125C55.375 37.3571 55.2828 37.5796 55.1187 37.7437C54.9546 37.9078 54.7321 38 54.5 38C54.2679 38 54.0454 37.9078 53.8813 37.7437C53.7172 37.5796 53.625 37.3571 53.625 37.125V33.625C53.625 33.3929 53.7172 33.1704 53.8813 33.0063C54.0454 32.8422 54.2679 32.75 54.5 32.75ZM68.5 24C68.5 24.2321 68.4078 24.4546 68.2437 24.6187C68.0796 24.7828 67.8571 24.875 67.625 24.875H64.125C63.8929 24.875 63.6704 24.7828 63.5063 24.6187C63.3422 24.4546 63.25 24.2321 63.25 24C63.25 23.7679 63.3422 23.5454 63.5063 23.3813C63.6704 23.2172 63.8929 23.125 64.125 23.125H67.625C67.8571 23.125 68.0796 23.2172 68.2437 23.3813C68.4078 23.5454 68.5 23.7679 68.5 24ZM45.75 24C45.75 24.2321 45.6578 24.4546 45.4937 24.6187C45.3296 24.7828 45.1071 24.875 44.875 24.875H41.375C41.1429 24.875 40.9204 24.7828 40.7563 24.6187C40.5922 24.4546 40.5 24.2321 40.5 24C40.5 23.7679 40.5922 23.5454 40.7563 23.3813C40.9204 23.2172 41.1429 23.125 41.375 23.125H44.875C45.1071 23.125 45.3296 23.2172 45.4937 23.3813C45.6578 23.5454 45.75 23.7679 45.75 24ZM64.3997 14.1002C64.5638 14.2643 64.6559 14.4869 64.6559 14.7189C64.6559 14.9509 64.5638 15.1734 64.3997 15.3375L61.9253 17.8138C61.8439 17.895 61.7473 17.9594 61.6411 18.0033C61.5348 18.0473 61.421 18.0698 61.306 18.0697C61.0738 18.0696 60.8512 17.9772 60.6871 17.8129C60.6059 17.7315 60.5415 17.635 60.4975 17.5287C60.4536 17.4225 60.4311 17.3086 60.4311 17.1936C60.4313 16.9614 60.5237 16.7388 60.688 16.5747L63.1625 14.1002C63.3266 13.9362 63.5491 13.8441 63.7811 13.8441C64.0131 13.8441 64.2357 13.9362 64.3997 14.1002ZM48.312 30.188C48.476 30.3521 48.5682 30.5746 48.5682 30.8066C48.5682 31.0386 48.476 31.2612 48.312 31.4253L45.8375 33.8997C45.6725 34.0591 45.4514 34.1473 45.222 34.1453C44.9926 34.1433 44.7731 34.0513 44.6109 33.8891C44.4487 33.7269 44.3567 33.5074 44.3547 33.278C44.3527 33.0486 44.4409 32.8275 44.6002 32.6625L47.0747 30.188C47.2388 30.024 47.4614 29.9318 47.6934 29.9318C47.9254 29.9318 48.1479 30.024 48.312 30.188ZM64.3997 33.8997C64.2357 34.0638 64.0131 34.1559 63.7811 34.1559C63.5491 34.1559 63.3266 34.0638 63.1625 33.8997L60.688 31.4253C60.5286 31.2602 60.4404 31.0392 60.4424 30.8098C60.4444 30.5804 60.5364 30.3609 60.6987 30.1987C60.8609 30.0364 61.0804 29.9444 61.3098 29.9424C61.5392 29.9404 61.7602 30.0286 61.9253 30.188L64.3997 32.6625C64.5638 32.8266 64.6559 33.0491 64.6559 33.2811C64.6559 33.5131 64.5638 33.7357 64.3997 33.8997ZM48.312 17.8138C48.1479 17.9778 47.9254 18.0699 47.6934 18.0699C47.4614 18.0699 47.2388 17.9778 47.0747 17.8138L44.6002 15.3375C44.5167 15.2568 44.45 15.1602 44.4042 15.0535C44.3583 14.9467 44.3342 14.8319 44.3332 14.7157C44.3321 14.5995 44.3543 14.4843 44.3983 14.3768C44.4423 14.2693 44.5072 14.1716 44.5894 14.0894C44.6716 14.0072 44.7693 13.9423 44.8768 13.8983C44.9843 13.8543 45.0995 13.8321 45.2157 13.8332C45.3319 13.8342 45.4467 13.8583 45.5535 13.9042C45.6602 13.95 45.7568 14.0167 45.8375 14.1002L48.312 16.5747C48.3935 16.656 48.4581 16.7526 48.5022 16.8589C48.5464 16.9652 48.5691 17.0792 48.5691 17.1943C48.5691 17.3093 48.5464 17.4233 48.5022 17.5296C48.4581 17.6359 48.3935 17.7325 48.312 17.8138Z" fill="#FCFCFC"/>
</g>
</g>
<defs>
<clipPath id="clip0_702_2760">
<rect width="118" height="48" fill="white" transform="translate(0.5)"/>
</clipPath>
<clipPath id="clip1_702_2760">
<rect width="28" height="28" fill="white" transform="translate(40.5 10)"/>
</clipPath>
</defs>
</svg>
